<svg xmlns="http://www.w3.org/2000/svg" viewBox="0 0 320 175.6"><path fill="#FFF" d="M127.5 125.8c.5-2.2.7-4.4.2-6.7.9-.5 2-2 2.8-1.8-.3 2.8 1.4 7-3 8.5M21.3 85.9h-3.9l-1.1-10c-.2-1.4-.2-2.8-.2-2.9-.1.3-.3 1.5-.6 2.8l-3.3 10.1H9.1L5.8 75.8c-.4-1.2-.6-2.5-.7-2.8 0 .2 0 1.5-.2 2.9l-1.1 10H0l2.5-17.7H7l3.4 10.7c.2.7.3 1.6.4 1.7 0-.1.2-1 .4-1.7l3.4-10.7h4.5l2.2 17.7zM38.1 81.7h-5.3l-1.2 4.2h-3.9l5.7-17.7h4l5.7 17.7h-3.9l-1.1-4.2zm-4.5-2.8h3.6l-.5-1.9c-.5-1.7-1.1-3.8-1.3-5-.2 1.4-.8 3.2-1.3 5l-.5 1.9zM50.2 85.9V68.2h6.5c3.5 0 5.7 2.3 5.7 5.8 0 2.3-.9 4-2.5 4.9l3 7h-4l-2.5-6.1h-2.7v6.1h-3.5zM59 74c0-1.6-1-2.5-2.8-2.5h-2.3v5h2.3c1.7 0 2.8-.9 2.8-2.5M71.1 85.9V68.2h3.6v14.4H81v3.3zM98 81.7h-5.3l-1.2 4.2h-3.9l5.7-17.7h4l5.7 17.7h-3.9L98 81.7zm-4.5-2.8h3.6l-.5-1.9c-.5-1.7-1.1-3.8-1.3-5-.2 1.4-.8 3.2-1.3 5l-.5 1.9zM1.2 106.4V95.6h1.6v9.3h4v1.5zM17.7 103.4h-3.4l-.9 3h-1.8l3.5-10.8h1.7l3.5 10.8h-1.7l-.9-3zm-3-1.5h2.5l-1-3.3c-.2-.5-.3-1-.3-1.2 0 .2-.2.8-.3 1.2l-.9 3.3zM30.6 106.6c-3.1 0-5.5-2.5-5.5-5.5s2.4-5.5 5.5-5.5c1.6 0 3 .6 4 1.8l-1.2 1.1c-.7-.8-1.7-1.3-2.8-1.3-2.2 0-3.8 1.8-3.8 4s1.7 4 3.8 4c1.1 0 2.1-.6 2.9-1.3l1.2 1.1c-1 .9-2.4 1.6-4.1 1.6M46.4 106.4v-5.3h-4v5.3h-1.6V95.6h1.6v4h4v-4H48v10.8zM54.9 106.4V95.6H61v1.5h-4.5v2.9h3.4v1.5h-3.4v3.4H61v1.5zM67.6 106.4V95.6h3.5c2.2 0 3.4 1.4 3.4 3.4 0 1.4-.6 2.4-1.7 3l1.9 4.4H73c-.6-1.3-1.2-2.7-1.7-4h-2.1v4h-1.6zM73 99c0-1.1-.7-1.9-2-1.9h-1.7v3.7H71c1.3.1 2-.7 2-1.8M80.7 106.4v-1.3l4.7-7.5c.2-.3.4-.5.4-.5H81v-1.5h6.9v1.3l-4.7 7.5c-.2.3-.3.5-.3.5h5v1.5h-7.2zM99.3 103.4h-3.4l-.9 3h-1.8l3.5-10.8h1.7l3.5 10.8h-1.7l-.9-3zm-3-1.5h2.5l-1-3.3c-.2-.5-.3-1-.3-1.2 0 .2-.2.8-.3 1.2l-.9 3.3zM235.6 86.2c-5.1 0-9-4.1-9-9.1s4-9.1 9-9.1c2.8 0 5.1 1.1 6.8 3.1l-2.7 2.3c-1.1-1.2-2.5-2-4.1-2-3 0-5.3 2.5-5.3 5.6 0 3.2 2.3 5.7 5.3 5.7 1.7 0 3.1-.9 4.2-2.1l2.8 2.2c-1.7 2-3.9 3.4-7 3.4M259 85.9v-8.3h-5.4v8.3h-3.7V68.2h3.7v6.1h5.4v-6.1h3.6v17.7zM271.5 85.9V68.2h6.5c3.5 0 5.7 2.3 5.7 5.8 0 2.3-.9 4-2.5 4.9l3 7h-4l-2.5-6.1H275v6.1h-3.5zm8.7-11.9c0-1.6-1-2.5-2.8-2.5h-2.3v5h2.3c1.7 0 2.8-.9 2.8-2.5M292.4 85.9v-3h2.2V71.2h-2.2v-3h8v3h-2.2v11.7h2.2v3zM308.2 82.7l2.9-2.1c.7 1.4 1.8 2.1 3.1 2.1 1.2 0 2-.8 2-1.9 0-2.6-6.8-3.6-6.8-8.4 0-2.7 2.3-4.6 4.8-4.6 2 0 3.5.9 4.4 2.4l-2.4 2.2c-.5-.7-1.1-1.2-1.8-1.2s-1.3.5-1.3 1.3c0 2.2 6.8 3.4 6.8 8.4 0 3-2.3 5.3-5.6 5.3-2.6-.1-4.9-1.1-6.1-3.5M227.2 106.4V95.6h2.9c1.8 0 2.7 1.1 2.7 2.6 0 .9-.4 1.5-1.1 1.9 1.3.5 2.2 1.6 2.2 3 0 1.8-1.2 3.3-4 3.3h-2.7zm2.5-6.7c1 0 1.5-.6 1.5-1.5 0-.7-.4-1.3-1.3-1.3h-1.1v2.8h.9zm.6 5.3c1.3 0 2-.9 2-1.9 0-1-.7-2-2-2h-1.5v3.9h1.5zM243 106.4V95.6h3.5c2.2 0 3.4 1.4 3.4 3.4 0 1.4-.6 2.4-1.7 3l1.9 4.4h-1.8c-.6-1.3-1.2-2.7-1.7-4h-2.1v4H243zm5.3-7.4c0-1.1-.7-1.9-2-1.9h-1.7v3.7h1.7c1.4.1 2-.7 2-1.8M263.4 103.4H260l-.9 3h-1.8l3.5-10.8h1.7l3.5 10.8h-1.7l-.9-3zm-2.9-1.5h2.5l-1-3.3c-.2-.5-.3-1-.3-1.2 0 .2-.2.8-.3 1.2l-.9 3.3zM279 106.6c-3.1 0-5.5-2.5-5.5-5.5s2.4-5.5 5.5-5.5c1.6 0 3 .6 4 1.8l-1.2 1.1c-.7-.8-1.7-1.3-2.8-1.3-2.2 0-3.8 1.8-3.8 4s1.7 4 3.8 4c1.1 0 2.1-.6 2.9-1.3l1.2 1.1c-1 .9-2.4 1.6-4.1 1.6M296.7 106.6c-3.1 0-5.5-2.5-5.5-5.5s2.4-5.5 5.5-5.5c1.6 0 3 .6 4 1.8l-1.2 1.1c-.7-.8-1.7-1.3-2.8-1.3-2.2 0-3.8 1.8-3.8 4s1.7 4 3.8 4c1.1 0 2.1-.6 2.9-1.3l1.2 1.1c-1 .9-2.4 1.6-4.1 1.6M309 101c0-3 2.5-5.5 5.5-5.5S320 98 320 101c0 3.1-2.5 5.5-5.5 5.5-3.1.1-5.5-2.4-5.5-5.5m9.3 0c0-2.3-1.6-4-3.8-4-2.2 0-3.9 1.7-3.9 4s1.6 4 3.9 4c2.2 0 3.8-1.7 3.8-4M147 102.8l-23.4 18.7-1.1-1.4 23.3-18.6M198.7 59.3l13.1-10.5 1.1 1.4-13 10.4"/><path fill="#FFF" d="M218.1 44.9l-10.7 3.6 4.8 6.1zM125.6 109.1c2.2.1 4.3 1 6.4 1.8.8-.6 1.7-1.2 2.5-1.7-2.6-1.3-6.2-3.7-8.9-.1M121.4 112.1c2.2.1 4.3.8 6.4 1.8.7-.7 2.5-1.3 2.5-2.2-2.7-.5-6.2-3.5-8.9.4M117.2 115c2.2.1 4.4.6 6.4 1.8.7-.7 2.5-1.3 2.5-2.2-2.7-.6-6.2-3.3-8.9.4M135.6 120.5c.6-2.2.3-4.4.2-6.7.8-.6 1.6-1.2 2.4-1.9.4 3 1.7 7.1-2.6 8.6M131.5 123.7c.6-2.2.5-4.4.2-6.7.9-.5 2-2 2.8-1.8-.3 2.8 1.5 6.9-3 8.5"/><g fill="#FFF"><path d="M162.4 89.4c0 2.1 1.4 3.4 3.4 3.4 1.4 0 2.7-.7 3.7-2l-4.3-5.4c-1.6 1.1-2.8 2.3-2.8 4zM167.8 79.9c0-.7-.4-1.4-1.3-1.4s-1.4.7-1.4 1.5c0 .9.5 1.7 1.1 2.6 1.2-.7 1.6-1.6 1.6-2.7z"/><path d="M186.5 54.6c-6.1-1.1-11.9 1.2-15.7 4.7-1.3 1.2-1.9 2.6-3.4 4-3.5-5.2-8.4-9.8-17.6-8.9-5.6.5-10.2 3.7-12.7 6.6-3 3.4-5.2 8.9-4.7 15.3.4 5.4 3.1 10 5.9 13.8 8.1 11.2 20.8 20.7 29.1 30.1 6.8-6.7 13-12.1 20.2-19.3 3.2-3.2 6.5-6.7 9.3-10.6 2.8-4 5.5-8.4 5.9-14 .8-11.6-6.6-19.9-16.3-21.7zm-13.3 40.7c-.7-.9-1.5-1.8-2.2-2.7-1.4 1.6-3.1 2.7-5.3 2.7-3.1 0-6.1-2.1-6.1-5.8 0-2.9 2.1-4.6 4.3-5.7l-.1-.1c-.9-1.1-1.3-2.4-1.3-3.7 0-2.2 1.8-4 4.1-4 2.6 0 3.8 1.8 3.8 3.7 0 2-1 3.3-2.7 4.4L171 88c.4-1.2.8-2.2.9-4.2h2.7c-.3 2-.9 4.3-1.9 6.2l2.7 3.4-2.2 1.9z"/></g><g fill="#FFF"><path d="M97.1 11.1H96v-3l-4.3-5.8c-.2-.2-.3-.4-.3-.4V11h-1.1V.2h1.2L95.7 6c.1.2.3.4.3.5V.2h1.1v10.9zM100.5 5.6c0-3.1 2.5-5.6 5.6-5.6 3.1 0 5.6 2.5 5.6 5.6 0 3.1-2.5 5.6-5.6 5.6-3 0-5.6-2.5-5.6-5.6m10.2 0c0-2.6-1.9-4.6-4.5-4.6s-4.5 2-4.5 4.6c0 2.6 1.9 4.6 4.5 4.6 2.5 0 4.5-2 4.5-4.6M116.9 11.1L113.4.2h1.2l2.7 8.7c.1.4.2.7.2.8l.2-.8 2.7-8.7h1.2l-3.5 10.9h-1.2zM130.2 11.1h-5.9V.2h5.9v1h-4.8v3.7h3.8v1h-3.8V10h4.8zM145.1 11.1H144l-1-8.5c0-.3-.1-.6-.1-.7 0 .1-.1.4-.2.7l-3 8.6h-.7l-3-8.6c-.1-.3-.2-.6-.2-.7 0 .1 0 .4-.1.7l-1 8.5h-1.2L135 .2h1.2l3 8.3.2.5c0-.1.1-.3.2-.5l3-8.3h1.2l1.3 10.9zM148.9 11.1V.2h2.5c1.7 0 2.7 1.1 2.7 2.7 0 .8-.4 1.4-1 1.8 1.3.5 2.2 1.6 2.2 3.1 0 1.8-1.3 3.3-4.1 3.3h-2.3zm2.6-6.6c1.1 0 1.6-.7 1.6-1.6 0-.9-.5-1.7-1.6-1.7H150v3.3h1.5zm-1.5.9v4.7h1.7c1.6 0 2.5-1.1 2.5-2.3 0-1.2-.9-2.4-2.4-2.4H150zM164.8 11.1H159V.2h5.8v1h-4.7v3.7h3.8v1h-3.8V10h4.7zM168.6 11.1V.2h3.2c2.2 0 3.4 1.5 3.4 3.2 0 1.4-.7 2.5-1.9 2.9l2.1 4.7h-1.2l-1.9-4.4h-2.5V11h-1.2zm3.2-5.5c1.6 0 2.3-.9 2.3-2.2 0-1.3-.7-2.2-2.3-2.2h-2.1v4.4h2.1zM184.2 11.1v-1h1.6V1.4l-1.3.6-.4-.8 1.9-1h.8v9.9h1.6v1zM190.6 9.2l.9-.5s.5 1.5 2.4 1.5c1.6 0 2.3-1.3 2.3-2.6 0-1.2-.7-2.3-2.1-2.3h-.7v-.9c1 0 1.7-.9 1.7-2 0-1-.7-1.5-1.3-1.5-.6 0-1.2.4-1.2 1.2h-1.1c0-1.5 1.1-2.3 2.3-2.3 1.2 0 2.4.8 2.4 2.5 0 .9-.4 1.8-1.2 2.2 1.4.4 2.2 1.6 2.2 3 0 1.8-1.1 3.5-3.4 3.5-2.6.2-3.2-1.8-3.2-1.8M199.9 12.3c.9-.5.9-1.1.9-1.1h-.1c-.5 0-.9-.4-.9-.9s.4-.9.9-.9c1.6 0 1.2 2.9-.3 3.5l-.5-.6zM210.4 11.1v-.8s5.3-3.6 5.3-7.1c0-1.4-1-2-2-2s-2 .7-2 2c0 .7.2 1 .2 1l-1 .3s-.3-.4-.3-1.3c0-2 1.5-3 3.1-3 1.5 0 3.1 1 3.1 3 0 2.8-3 5.7-4.5 6.8h4.6v1.1h-6.5zM224.3 0c3 0 4.7 2.5 4.7 5.6 0 3-1.7 5.6-4.7 5.6s-4.7-2.6-4.7-5.6c0-3 1.6-5.6 4.7-5.6m0 10.2c2.4 0 3.6-2.1 3.6-4.6 0-2.4-1.1-4.6-3.6-4.6-2.4 0-3.6 2.1-3.6 4.6 0 2.5 1.1 4.6 3.6 4.6M231.7 11.1v-1h1.5V1.4l-1.3.6-.4-.8 2-1h.8v9.9h1.6v1zM238.7 6.9c0-3 1.7-6 4.9-6.8l.4 1c-3.3 1-4.1 4-4.1 4 .6-.9 1.5-1.3 2.8-1.3 2.3 0 3.4 1.8 3.4 3.7 0 1.9-1.2 3.8-3.6 3.8-2.6-.1-3.8-2.1-3.8-4.4m1.2.7c0 1.4.8 2.7 2.5 2.7 1.6 0 2.5-1.4 2.5-2.8s-.8-2.7-2.4-2.7c-1.7 0-2.6 1.4-2.6 2.8M78.3 4.7L75 2.8l-3.2 1.9-1 .6 1 .5L75 7.7l3.3-1.9 1-.5zM263.4 4.7l-3.2-1.9-3.3 1.9-1 .6 1 .5 3.3 1.9 3.2-1.9 1-.5z"/></g><g fill="#FFF"><path d="M72.2 158.4c-1.2-.4-2.5-.7-3.7-1.1-.7 1-1.4 2.1-2.1 3.1-.4-.1-.8-.2-1.2-.4 2.3-3.2 4.6-6.4 6.8-9.6.4.1.7.2 1.1.3.1 3.9.3 7.9.5 11.8l-1.2-.3c-.1-1.3-.1-2.5-.2-3.8m-3.1-1.9c1 .3 2.1.6 3.1.9 0-1.5-.1-2.9-.1-4.4v-1.1s-.3.6-.6.9c-.8 1.3-1.6 2.5-2.4 3.7M77.1 163.5c1-3.6 1.9-7.2 2.9-10.8 1.1.3 2.1.6 3.2.8 2.3.6 3.1 2.3 2.6 4.1-.3 1.4-1.3 2.3-2.7 2.4.3 1.7.6 3.5 1 5.2l-1.2-.3c-.3-1.6-.6-3.3-.9-5-.1 0-.3-.1-.5-.1l-2.1-.6c-.4 1.5-.8 2.9-1.2 4.4-.3.1-.7 0-1.1-.1m4.7-4.6c1.7.4 2.6-.3 2.9-1.6.3-1.3-.2-2.4-1.8-2.8l-2.1-.6c-.4 1.5-.8 2.9-1.2 4.4.8.3 1.5.4 2.2.6M94.5 167.7c-2.1-.4-4.1-.9-6.1-1.4.8-3.6 1.7-7.3 2.5-10.9 2 .5 4 .9 5.9 1.3-.1.3-.1.7-.2 1-1.6-.3-3.2-.7-4.8-1.1-.3 1.2-.6 2.5-.8 3.7l3.9.9c-.1.3-.1.7-.2 1l-3.9-.9c-.3 1.4-.6 2.8-1 4.1 1.7.4 3.3.8 5 1.1-.1.5-.2.9-.3 1.2M110.6 170.9c-3.3-.5-5.5-3.6-4.9-6.7.6-3.1 3.6-5.2 6.8-4.7 1.6.3 2.9 1.1 3.8 2.3-.3.2-.6.4-.9.7-.7-1-1.8-1.7-3.1-1.9-2.6-.4-5 1.3-5.5 3.8s1.3 5 4 5.5c1.3.2 2.3 0 3.2-.5.2-1 .3-2 .5-3-1-.2-2-.3-3.1-.5.1-.3.1-.7.2-1 1.4.2 2.8.5 4.2.7-.2 1.5-.4 2.9-.7 4.4-1.2.8-2.9 1.2-4.5.9M125.7 172.9c-2.1-.3-4.1-.5-6.2-.8L121 161c2 .3 4 .5 6 .8 0 .4-.1.7-.1 1-1.6-.2-3.3-.4-4.9-.6-.2 1.2-.3 2.5-.5 3.7 1.3.2 2.6.4 4 .5 0 .4-.1.7-.1 1-1.3-.2-2.7-.3-4-.5l-.6 4.2c1.7.2 3.4.4 5 .6 0 .5 0 .9-.1 1.2M131.5 173.6c.4-3.4.7-6.7 1.1-10.1-.9-.1-1.7-.2-2.6-.3 0-.4.1-.7.1-1l6.3.6c0 .4-.1.7-.1 1.1-.9-.1-1.7-.2-2.6-.3-.3 3.4-.7 6.7-1 10.1-.4 0-.8-.1-1.2-.1M140.4 174.4c.3-3.4.5-6.7.8-10.1-.9-.1-1.7-.1-2.6-.2 0-.4.1-.7.1-1.1 2.1.2 4.2.3 6.3.5 0 .4 0 .7-.1 1.1-.9-.1-1.7-.1-2.6-.2-.3 3.4-.5 6.7-.8 10.1-.3 0-.7-.1-1.1-.1M147.1 174.9c0-.3 0-.6.1-1 .5 0 .9.1 1.4.1.2-3.1.3-6.2.5-9.3-.5 0-.9-.1-1.4-.1 0-.3 0-.6.1-1 1.3.1 2.6.1 3.9.2v1c-.5 0-.9 0-1.4-.1-.2 3.1-.3 6.2-.5 9.3.5 0 .9 0 1.4.1v1c-1.5-.1-2.8-.2-4.1-.2M162.4 175.4h-1.2c0-1 0-2 .1-3-1.5-2-2.9-4-4.4-6.1-.2-.2-.3-.4-.3-.4v.5c-.1 3-.2 5.9-.3 8.9h-1.2c.1-3.7.3-7.5.4-11.2h1.2l4.2 6c.1.2.3.5.3.5v-.6c0-1.9.1-3.9.1-5.8h1.1c.1 3.8.1 7.5 0 11.2M172.5 175.6c-3.3 0-6-2.5-6-5.7s2.6-5.7 5.8-5.8c1.6 0 3.1.6 4.2 1.6l-.8.8c-.9-.8-2.1-1.4-3.4-1.4-2.6 0-4.7 2.2-4.7 4.7 0 2.6 2.1 4.7 4.8 4.7 1.3 0 2.3-.4 3.1-1.1 0-1 0-2-.1-3-1 0-2.1 0-3.1.1v-1.1c1.4 0 2.8 0 4.2-.1 0 1.5.1 3 .1 4.4-.9 1.2-2.4 1.9-4.1 1.9M200.1 174c-.4 0-.8.1-1.2.1l-1.8-8.7c-.1-.3-.1-.6-.1-.7 0 .1-.1.4-.2.7-.8 3-1.6 6-2.5 9.1-.2 0-.5 0-.7.1-1.3-2.8-2.6-5.7-3.8-8.6-.1-.3-.3-.6-.3-.7v.7c-.2 2.9-.3 5.9-.5 8.8-.4 0-.8 0-1.2.1.3-3.8.6-7.5.9-11.3.4 0 .8 0 1.2-.1 1.2 2.8 2.5 5.5 3.8 8.3.1.2.1.4.2.5 0-.1.1-.4.1-.6.9-2.9 1.7-5.8 2.5-8.7.4 0 .8-.1 1.2-.1.7 3.7 1.6 7.4 2.4 11.1M209 169.4c-1.3.2-2.5.3-3.8.4-.2 1.2-.5 2.4-.7 3.7-.4 0-.8.1-1.3.1.9-3.8 1.7-7.7 2.5-11.5.4 0 .7-.1 1.1-.1 1.6 3.6 3.3 7.1 5.1 10.7-.4.1-.8.1-1.2.2-.6-1.2-1.1-2.3-1.7-3.5m-3.6-.5c1.1-.1 2.1-.2 3.2-.4-.6-1.3-1.2-2.7-1.8-4-.2-.4-.4-1-.4-1s-.1.6-.2 1.1c-.2 1.4-.5 2.8-.8 4.3M215.4 172.2l-1.5-11.1c1.1-.2 2.2-.3 3.3-.5 2.3-.3 3.7.9 4 2.8.2 1.4-.3 2.6-1.5 3.3 1 1.5 1.9 3 2.9 4.5-.4.1-.8.1-1.3.2-.9-1.4-1.8-2.8-2.8-4.2-.1 0-.3.1-.5.1-.7.1-1.5.2-2.2.3l.6 4.5c-.2 0-.6 0-1 .1m2.6-6c1.7-.3 2.3-1.3 2.1-2.6-.2-1.3-1.1-2.1-2.7-1.9l-2.1.3.6 4.5c.6-.1 1.4-.2 2.1-.3M226.9 170.4c-.6-3.7-1.3-7.4-1.9-11 1.1-.2 2.2-.4 3.2-.6 2.3-.4 3.8.8 4.1 2.6.3 1.4-.2 2.6-1.4 3.3 1 1.5 2 2.9 3.1 4.4-.4.1-.8.2-1.3.2-1-1.4-1.9-2.7-2.9-4.1-.1 0-.3.1-.5.1-.7.1-1.4.3-2.2.4.3 1.5.5 3 .8 4.5-.2.1-.6.1-1 .2m2.4-6.1c1.7-.3 2.2-1.4 2-2.7-.3-1.3-1.2-2.1-2.8-1.8-.7.1-1.4.3-2.1.4.3 1.5.5 3 .8 4.5.6-.2 1.3-.3 2.1-.4M237.5 168.4c-.1-.3-.1-.6-.2-.9.5-.1.9-.2 1.4-.3-.6-3-1.3-6.1-1.9-9.1-.5.1-.9.2-1.4.3-.1-.3-.1-.6-.2-.9 1.3-.3 2.5-.5 3.8-.8.1.3.1.6.2.9-.4.1-.9.2-1.3.3.6 3 1.3 6.1 1.9 9.1.5-.1.9-.2 1.4-.3.1.3.1.6.2.9-1.3.3-2.6.5-3.9.8M251.7 165.2c-2 .5-4.1 1-6.1 1.5-.8-3.6-1.7-7.3-2.5-10.9 2-.5 4-.9 5.9-1.4.1.3.2.7.3 1l-4.8 1.2c.3 1.2.6 2.5.9 3.7l3.9-.9c.1.3.2.7.3 1l-3.9.9c.3 1.4.6 2.8 1 4.1 1.7-.4 3.3-.8 5-1.2-.2.3-.1.7 0 1M253.2 153.2c.9-.2 1.8-.5 2.7-.7 3.5-.9 6.1-.1 7.2 3.6 1 3.5-.6 6.2-3.8 7l-3.3.9c-.9-3.5-1.8-7.1-2.8-10.8m5.9 9.1c2.5-.7 3.7-2.9 2.9-5.8-.9-3.2-3-3.8-5.8-3-.5.1-1.1.3-1.6.4l2.4 9 2.1-.6M268.8 158.8c.5-.2 1 .1 1.2.6.1.5-.2 1-.7 1.2-.5.2-1-.1-1.2-.6-.1-.6.2-1.1.7-1.2m-1-1.4c-.8-2.5-1.6-5.1-2.4-7.6.4-.1.8-.2 1.2-.4.8 2.6 1.5 5.1 2.3 7.7-.4.1-.7.2-1.1.3"/></g></svg>