<svg xmlns="http://www.w3.org/2000/svg" viewBox="0 0 800 800"><g fill="#FFF"><path d="M800.1 165.3c0-8.6-7-15.7-15.7-15.7H641.7c-8.6 0-15.7 7-15.7 15.7v61.5c0 1.2.1 2.3.4 3.5v66.9c-3.4-.9-6.9-1.5-10.4-1.5-23 0-41.7 18.7-41.7 41.7s18.7 41.7 41.7 41.7c23 0 41.7-18.7 41.7-41.7 0-2.3-.3-4.5-.7-6.7.4-1.3.7-2.8.7-4.4v-83.9h110.7v54.8c-3.4-.9-6.9-1.5-10.4-1.5-23 0-41.7 18.7-41.7 41.7s18.7 41.7 41.7 41.7 41.7-18.7 41.7-41.7c0-2.3-.3-4.5-.7-6.7.4-1.3.7-2.8.7-4.4v-98.1c0-.4.1-.9.1-1.5l.3-61.4zm-142.7 15.5h111.3v30.3H657.4v-30.3zm-41.3 167.1c-5.7 0-10.4-4.7-10.4-10.4s4.7-10.4 10.4-10.4 10.4 4.7 10.4 10.4c.2 5.6-4.5 10.4-10.4 10.4zm142.1 0c-5.7 0-10.4-4.7-10.4-10.4s4.7-10.4 10.4-10.4 10.4 4.7 10.4 10.4c.1 5.6-4.6 10.4-10.4 10.4zM83.6 313.7c0-5.1-1-10-2.8-14.4v-56.1L192.1 222v51.7c-3.5-1-7.3-1.8-11.1-1.8-23 0-41.7 18.7-41.7 41.7 0 23 18.7 41.7 41.7 41.7s41.7-18.7 41.7-41.7c0-1.8-.3-3.4-.4-5 .7-1.9 1.2-4 1.2-6V141.5c0-4.7-2.1-9.1-5.7-12-3.7-2.9-8.3-4.2-12.9-3.4L62.2 153.4c-7.3 1.5-12.7 7.9-12.7 15.4v104c-2.5-.4-5.1-.7-7.8-.7-23 0-41.7 18.7-41.7 41.7s18.7 41.7 41.7 41.7 41.9-18.8 41.9-41.8zm97.5 10.5c-5.7 0-10.4-4.7-10.4-10.4s4.7-10.4 10.4-10.4 10.4 4.7 10.4 10.4-4.7 10.4-10.4 10.4zM80.8 181.7l111.3-21.2v29.7L80.8 211.4v-29.7zm-39 142.5c-5.7 0-10.4-4.7-10.4-10.4s4.7-10.4 10.4-10.4c3.8 0 7.2 2.2 8.9 5.3.3.6.6 1 .9 1.6.4 1.2.7 2.3.7 3.5.1 5.7-4.6 10.4-10.5 10.4zM635 548.4c-.1-99.9-63.4-185.3-152-218.2v-56.1c0-8.6-7-15.7-15.7-15.7h-48.6V33.8c0-8.6-7-15.7-15.7-15.7-8.6 0-15.7 7-15.7 15.7v224.5h-50.5c-8.6 0-15.7 7-15.7 15.7v56c-88.9 32.8-152.6 118.3-152.6 218.5-.3 1.2-.6 2.5-.6 3.8 0 1.6.3 3.1.7 4.4 4.2 124.9 107.1 225.3 233 225.3s228.8-100.3 233-225.3c.4-1.5.7-2.9.7-4.4.1-1.4 0-2.7-.3-3.9zm-59 102h-51.4c7.3-25.2 12-52.9 13.2-82.6h65c-2.8 30-12.3 58-26.8 82.6zm-375.1-82.5h65c1.3 29.6 5.9 57.4 13.2 82.6h-51.4c-14.5-24.7-24-52.7-26.8-82.6zm22.7-113.8h54.9c-7.2 25.2-11.6 53-12.7 82.6h-65.3c1.7-29.7 9.8-57.7 23.1-82.6zm193.8-31.3v-62.5c24.3 7 46.1 29.9 62.1 62.5h-62.1zm74.8 31.3c8.1 24.8 13.2 52.9 14.5 82.6h-89.2v-82.6h74.7zm-106-93.9v62.5h-62.1c15.9-32.6 37.7-55.4 62.1-62.5zm0 93.9v82.6H297c1.3-29.7 6.4-57.9 14.5-82.6h74.7zm-89.1 113.8h89.1v82.6h-74c-8.4-24.7-13.6-52.8-15.1-82.6zm89.1 113.8v60.5c-23.7-6.9-45.3-28.9-61.1-60.5h61.1zm31.2 60.5v-60.5h61.1c-15.9 31.7-37.3 53.6-61.1 60.5zm0-91.8v-82.6h89.1c-1.5 29.9-6.9 57.9-15.1 82.6h-74zm120.4-113.8c-1.2-29.6-5.6-57.4-12.7-82.6h53.5c.4 0 .9-.1 1.5-.1 13.3 24.9 21.4 53 23.1 82.8h-65.4zm21.6-113.8h-45.1c-10.4-25-23.9-46.1-39.5-62.1 33.4 13 62.5 34.5 84.6 62.1zM352.6 289.6h99.2V321c-16.1-3.5-32.8-5.4-49.8-5.4-16.8 0-33.4 1.9-49.2 5.3v-31.2h-.2zm-23.9 71.1c-15.7 16.1-29.1 37.2-39.5 62.1h-45.1c22.1-27.6 51.2-49.1 84.6-62.1zm-78.6 321h40c8.6 20.4 19.3 37.9 31.6 52.4-27.7-11.9-52-30.1-71.6-52.4zM481.9 734c12.3-14.4 22.8-32.1 31.6-52.4h40c-19.7 22.4-44 40.4-71.6 52.4zM147.9 433.8L87.8 408c-7.9-3.4-17.1.3-20.5 8.2-3.4 7.9.3 17.1 8.2 20.5l60.1 25.8c2.1.9 4.1 1.3 6.2 1.3 6 0 11.9-3.5 14.4-9.5 3.2-7.9-.4-17.2-8.3-20.5zM127.5 655.7l-60.1 25.8c-7.9 3.4-11.6 12.6-8.2 20.5 2.5 5.9 8.3 9.5 14.4 9.5 2.1 0 4.1-.4 6.2-1.3l60.1-25.8c7.9-3.4 11.6-12.6 8.2-20.5-3.5-7.9-12.5-11.6-20.6-8.2zM68.5 574.8l65.3-.1c8.6 0 15.7-7 15.5-15.7s-7-15.5-15.7-15.5l-65.3.1c-8.6 0-15.7 7-15.5 15.7 0 8.5 7 15.5 15.7 15.5-.2 0 0 0 0 0zM668.3 463.8c2.1 0 4.1-.4 6.2-1.3l60.1-25.8c7.9-3.4 11.6-12.6 8.2-20.5-3.4-7.9-12.6-11.6-20.5-8.2l-60.1 25.8c-7.9 3.4-11.6 12.6-8.2 20.5 2.4 6 8.2 9.5 14.3 9.5zM721.7 681.4l-60.1-25.8c-7.9-3.4-17.1.3-20.5 8.2s.3 17.1 8.2 20.5l60.1 25.8c2.1.9 4.1 1.3 6.2 1.3 6 0 11.9-3.5 14.4-9.5 3.3-7.9-.4-17.1-8.3-20.5zM741.6 543.6l-65.3-.1c-8.6 0-15.7 7-15.7 15.5 0 8.6 7 15.7 15.5 15.7l65.3.1c8.6 0 15.7-7 15.7-15.5.2-8.7-6.8-15.7-15.5-15.7z"/></g></svg>