<?xml version="1.0" encoding="utf-8"?>
<!-- Generator: Adobe Illustrator 18.1.1, SVG Export Plug-In . SVG Version: 6.00 Build 0)  -->
<svg version="1.1" id="Layer_1" xmlns="http://www.w3.org/2000/svg" xmlns:xlink="http://www.w3.org/1999/xlink" x="0px" y="0px"
	 viewBox="0 0 320 175.6" enable-background="new 0 0 320 175.6" xml:space="preserve">
<path fill="#FFFFFF" d="M127.5,125.8c0.5-2.2,0.7-4.4,0.2-6.7c0.9-0.5,2-2,2.8-1.8C130.2,120.1,131.9,124.3,127.5,125.8"/>
<path fill="#FFFFFF" d="M21.3,85.9h-3.9l-1.1-10c-0.2-1.4-0.2-2.8-0.2-2.9c-0.1,0.3-0.3,1.5-0.6,2.8l-3.3,10.1H9.1L5.8,75.8
	c-0.4-1.2-0.6-2.5-0.7-2.8c0,0.2,0,1.5-0.2,2.9l-1.1,10H0l2.5-17.7h4.5l3.4,10.7c0.2,0.7,0.3,1.6,0.4,1.7c0-0.1,0.2-1,0.4-1.7
	l3.4-10.7h4.5L21.3,85.9z"/>
<path fill="#FFFFFF" d="M38.1,81.7h-5.3l-1.2,4.2h-3.9l5.7-17.7h4l5.7,17.7h-3.9L38.1,81.7z M33.6,78.9h3.6L36.7,77
	c-0.5-1.7-1.1-3.8-1.3-5c-0.2,1.4-0.8,3.2-1.3,5L33.6,78.9z"/>
<path fill="#FFFFFF" d="M50.2,85.9V68.2h6.5c3.5,0,5.7,2.3,5.7,5.8c0,2.3-0.9,4-2.5,4.9l3,7h-4l-2.5-6.1h-2.7v6.1H50.2z M59,74
	c0-1.6-1-2.5-2.8-2.5h-2.3v5h2.3C57.9,76.5,59,75.6,59,74"/>
<polygon fill="#FFFFFF" points="71.1,85.9 71.1,68.2 74.7,68.2 74.7,82.6 81,82.6 81,85.9 "/>
<path fill="#FFFFFF" d="M98,81.7h-5.3l-1.2,4.2h-3.9l5.7-17.7h4l5.7,17.7h-3.9L98,81.7z M93.5,78.9h3.6L96.6,77
	c-0.5-1.7-1.1-3.8-1.3-5c-0.2,1.4-0.8,3.2-1.3,5L93.5,78.9z"/>
<polygon fill="#FFFFFF" points="1.2,106.4 1.2,95.6 2.8,95.6 2.8,104.9 6.8,104.9 6.8,106.4 "/>
<path fill="#FFFFFF" d="M17.7,103.4h-3.4l-0.9,3h-1.8l3.5-10.8h1.7l3.5,10.8h-1.7L17.7,103.4z M14.7,101.9h2.5l-1-3.3
	c-0.2-0.5-0.3-1-0.3-1.2c0,0.2-0.2,0.8-0.3,1.2L14.7,101.9z"/>
<path fill="#FFFFFF" d="M30.6,106.6c-3.1,0-5.5-2.5-5.5-5.5c0-3,2.4-5.5,5.5-5.5c1.6,0,3,0.6,4,1.8l-1.2,1.1
	c-0.7-0.8-1.7-1.3-2.8-1.3c-2.2,0-3.8,1.8-3.8,4c0,2.2,1.7,4,3.8,4c1.1,0,2.1-0.6,2.9-1.3l1.2,1.1C33.7,105.9,32.3,106.6,30.6,106.6
	"/>
<polygon fill="#FFFFFF" points="46.4,106.4 46.4,101.1 42.4,101.1 42.4,106.4 40.8,106.4 40.8,95.6 42.4,95.6 42.4,99.6 46.4,99.6 
	46.4,95.6 48,95.6 48,106.4 "/>
<polygon fill="#FFFFFF" points="54.9,106.4 54.9,95.6 61,95.6 61,97.1 56.5,97.1 56.5,100 59.9,100 59.9,101.5 56.5,101.5 
	56.5,104.9 61,104.9 61,106.4 "/>
<path fill="#FFFFFF" d="M67.6,106.4V95.6h3.5c2.2,0,3.4,1.4,3.4,3.4c0,1.4-0.6,2.4-1.7,3l1.9,4.4H73c-0.6-1.3-1.2-2.7-1.7-4h-0.2
	h-1.9v4H67.6z M73,99c0-1.1-0.7-1.9-2-1.9h-1.7v3.7H71C72.3,100.9,73,100.1,73,99"/>
<path fill="#FFFFFF" d="M80.7,106.4v-1.3l4.7-7.5c0.2-0.3,0.4-0.5,0.4-0.5s-0.4,0-0.6,0h-4.2v-1.5h6.9v1.3l-4.7,7.5
	c-0.2,0.3-0.3,0.5-0.3,0.5c0,0,0.3,0,0.5,0h4.5v1.5H80.7z"/>
<path fill="#FFFFFF" d="M99.3,103.4h-3.4l-0.9,3h-1.8l3.5-10.8h1.7l3.5,10.8h-1.7L99.3,103.4z M96.3,101.9h2.5l-1-3.3
	c-0.2-0.5-0.3-1-0.3-1.2c0,0.2-0.2,0.8-0.3,1.2L96.3,101.9z"/>
<path fill="#FFFFFF" d="M235.6,86.2c-5.1,0-9-4.1-9-9.1c0-5,4-9.1,9-9.1c2.8,0,5.1,1.1,6.8,3.1l-2.7,2.3c-1.1-1.2-2.5-2-4.1-2
	c-3,0-5.3,2.5-5.3,5.6c0,3.2,2.3,5.7,5.3,5.7c1.7,0,3.1-0.9,4.2-2.1l2.8,2.2C240.9,84.8,238.7,86.2,235.6,86.2"/>
<polygon fill="#FFFFFF" points="259,85.9 259,77.6 253.6,77.6 253.6,85.9 249.9,85.9 249.9,68.2 253.6,68.2 253.6,74.3 259,74.3 
	259,68.2 262.6,68.2 262.6,85.9 "/>
<path fill="#FFFFFF" d="M271.5,85.9V68.2h6.5c3.5,0,5.7,2.3,5.7,5.8c0,2.3-0.9,4-2.5,4.9l3,7h-4l-2.5-6.1h-2.7v6.1H271.5z M280.2,74
	c0-1.6-1-2.5-2.8-2.5h-2.3v5h2.3C279.1,76.5,280.2,75.6,280.2,74"/>
<polygon fill="#FFFFFF" points="292.4,85.9 292.4,82.9 294.6,82.9 294.6,71.2 292.4,71.2 292.4,68.2 300.4,68.2 300.4,71.2 
	298.2,71.2 298.2,82.9 300.4,82.9 300.4,85.9 "/>
<path fill="#FFFFFF" d="M308.2,82.7l2.9-2.1c0.7,1.4,1.8,2.1,3.1,2.1c1.2,0,2-0.8,2-1.9c0-2.6-6.8-3.6-6.8-8.4
	c0-2.7,2.3-4.6,4.8-4.6c2,0,3.5,0.9,4.4,2.4l-2.4,2.2c-0.5-0.7-1.1-1.2-1.8-1.2s-1.3,0.5-1.3,1.3c0,2.2,6.8,3.4,6.8,8.4
	c0,3-2.3,5.3-5.6,5.3C311.7,86.1,309.4,85.1,308.2,82.7"/>
<path fill="#FFFFFF" d="M227.2,106.4V95.6h2.9c1.8,0,2.7,1.1,2.7,2.6c0,0.9-0.4,1.5-1.1,1.9c1.3,0.5,2.2,1.6,2.2,3
	c0,1.8-1.2,3.3-4,3.3H227.2z M229.7,99.7c1,0,1.5-0.6,1.5-1.5c0-0.7-0.4-1.3-1.3-1.3h-1.1v2.8H229.7z M230.3,105c1.3,0,2-0.9,2-1.9
	c0-1-0.7-2-2-2h-1.5v3.9H230.3z"/>
<path fill="#FFFFFF" d="M243,106.4V95.6h3.5c2.2,0,3.4,1.4,3.4,3.4c0,1.4-0.6,2.4-1.7,3l1.9,4.4h-1.8c-0.6-1.3-1.2-2.7-1.7-4h-0.2
	h-1.9v4H243z M248.3,99c0-1.1-0.7-1.9-2-1.9h-1.7v3.7h1.7C247.7,100.9,248.3,100.1,248.3,99"/>
<path fill="#FFFFFF" d="M263.4,103.4H260l-0.9,3h-1.8l3.5-10.8h1.7l3.5,10.8h-1.7L263.4,103.4z M260.5,101.9h2.5l-1-3.3
	c-0.2-0.5-0.3-1-0.3-1.2c0,0.2-0.2,0.8-0.3,1.2L260.5,101.9z"/>
<path fill="#FFFFFF" d="M279,106.6c-3.1,0-5.5-2.5-5.5-5.5c0-3,2.4-5.5,5.5-5.5c1.6,0,3,0.6,4,1.8l-1.2,1.1
	c-0.7-0.8-1.7-1.3-2.8-1.3c-2.2,0-3.8,1.8-3.8,4c0,2.2,1.7,4,3.8,4c1.1,0,2.1-0.6,2.9-1.3l1.2,1.1
	C282.1,105.9,280.7,106.6,279,106.6"/>
<path fill="#FFFFFF" d="M296.7,106.6c-3.1,0-5.5-2.5-5.5-5.5c0-3,2.4-5.5,5.5-5.5c1.6,0,3,0.6,4,1.8l-1.2,1.1
	c-0.7-0.8-1.7-1.3-2.8-1.3c-2.2,0-3.8,1.8-3.8,4c0,2.2,1.7,4,3.8,4c1.1,0,2.1-0.6,2.9-1.3l1.2,1.1
	C299.8,105.9,298.4,106.6,296.7,106.6"/>
<path fill="#FFFFFF" d="M309,101c0-3,2.5-5.5,5.5-5.5c3,0,5.5,2.5,5.5,5.5c0,3.1-2.5,5.5-5.5,5.5C311.4,106.6,309,104.1,309,101
	 M318.3,101c0-2.3-1.6-4-3.8-4c-2.2,0-3.9,1.7-3.9,4c0,2.3,1.6,4,3.9,4C316.7,105,318.3,103.3,318.3,101"/>
<polyline fill="#FFFFFF" points="147,102.8 123.6,121.5 122.5,120.1 145.8,101.5 "/>
<polyline fill="#FFFFFF" points="198.7,59.3 211.8,48.8 212.9,50.2 199.9,60.6 "/>
<polygon fill="#FFFFFF" points="218.1,44.9 207.4,48.5 212.2,54.6 "/>
<path fill="#FFFFFF" d="M125.6,109.1c2.2,0.1,4.3,1,6.4,1.8c0.8-0.6,1.7-1.2,2.5-1.7C131.9,107.9,128.3,105.5,125.6,109.1"/>
<path fill="#FFFFFF" d="M121.4,112.1c2.2,0.1,4.3,0.8,6.4,1.8c0.7-0.7,2.5-1.3,2.5-2.2C127.6,111.2,124.1,108.2,121.4,112.1"/>
<path fill="#FFFFFF" d="M117.2,115c2.2,0.1,4.4,0.6,6.4,1.8c0.7-0.7,2.5-1.3,2.5-2.2C123.4,114,119.9,111.3,117.2,115"/>
<path fill="#FFFFFF" d="M135.6,120.5c0.6-2.2,0.3-4.4,0.2-6.7c0.8-0.6,1.6-1.2,2.4-1.9C138.6,114.9,139.9,119,135.6,120.5"/>
<path fill="#FFFFFF" d="M131.5,123.7c0.6-2.2,0.5-4.4,0.2-6.7c0.9-0.5,2-2,2.8-1.8C134.2,118,136,122.1,131.5,123.7"/>
<g>
	<path fill="#FFFFFF" d="M162.4,89.4c0,2.1,1.4,3.4,3.4,3.4c1.4,0,2.7-0.7,3.7-2l-4.3-5.4C163.6,86.5,162.4,87.7,162.4,89.4z"/>
	<path fill="#FFFFFF" d="M167.8,79.9c0-0.7-0.4-1.4-1.3-1.4c-0.9,0-1.4,0.7-1.4,1.5c0,0.9,0.5,1.7,1.1,2.6
		C167.4,81.9,167.8,81,167.8,79.9z"/>
	<path fill="#FFFFFF" d="M186.5,54.6c-6.1-1.1-11.9,1.2-15.7,4.7c-1.3,1.2-1.9,2.6-3.4,4c-3.5-5.2-8.4-9.8-17.6-8.9
		c-5.6,0.5-10.2,3.7-12.7,6.6c-3,3.4-5.2,8.9-4.7,15.3c0.4,5.4,3.1,10,5.9,13.8c8.1,11.2,20.8,20.7,29.1,30.1
		c6.8-6.7,13-12.1,20.2-19.3c3.2-3.2,6.5-6.7,9.3-10.6c2.8-4,5.5-8.4,5.9-14C203.6,64.7,196.2,56.4,186.5,54.6z M173.2,95.3
		c-0.7-0.9-1.5-1.8-2.2-2.7c-1.4,1.6-3.1,2.7-5.3,2.7c-3.1,0-6.1-2.1-6.1-5.8c0-2.9,2.1-4.6,4.3-5.7c0,0-0.1-0.1-0.1-0.1
		c-0.9-1.1-1.3-2.4-1.3-3.7c0-2.2,1.8-4,4.1-4c2.6,0,3.8,1.8,3.8,3.7c0,2-1,3.3-2.7,4.4L171,88c0.4-1.2,0.8-2.2,0.9-4.2h2.7
		c-0.3,2-0.9,4.3-1.9,6.2l2.7,3.4L173.2,95.3z"/>
</g>
<g>
	<path fill="#FFFFFF" d="M97.1,11.1h-1.1v-3l-4.3-5.8c-0.2-0.2-0.3-0.4-0.3-0.4c0,0,0,0.3,0,0.5v8.6h-1.1V0.2h1.2l4.2,5.8
		c0.1,0.2,0.3,0.4,0.3,0.5c0,0,0-0.3,0-0.5V0.2h1.1V11.1z"/>
	<path fill="#FFFFFF" d="M100.5,5.6c0-3.1,2.5-5.6,5.6-5.6c3.1,0,5.6,2.5,5.6,5.6c0,3.1-2.5,5.6-5.6,5.6
		C103.1,11.2,100.5,8.7,100.5,5.6 M110.7,5.6c0-2.6-1.9-4.6-4.5-4.6c-2.6,0-4.5,2-4.5,4.6c0,2.6,1.9,4.6,4.5,4.6
		C108.7,10.2,110.7,8.2,110.7,5.6"/>
	<path fill="#FFFFFF" d="M116.9,11.1l-3.5-10.9h1.2l2.7,8.7c0.1,0.4,0.2,0.7,0.2,0.8c0,0,0.1-0.4,0.2-0.8l2.7-8.7h1.2l-3.5,10.9
		H116.9z"/>
	<polygon fill="#FFFFFF" points="130.2,11.1 124.3,11.1 124.3,0.2 130.2,0.2 130.2,1.2 125.4,1.2 125.4,4.9 129.2,4.9 129.2,5.9 
		125.4,5.9 125.4,10 130.2,10 	"/>
	<path fill="#FFFFFF" d="M145.1,11.1H144l-1-8.5c0-0.3-0.1-0.6-0.1-0.7c0,0.1-0.1,0.4-0.2,0.7l-3,8.6H139l-3-8.6
		c-0.1-0.3-0.2-0.6-0.2-0.7c0,0.1,0,0.4-0.1,0.7l-1,8.5h-1.2L135,0.2h1.2l3,8.3l0.2,0.5c0-0.1,0.1-0.3,0.2-0.5l3-8.3h1.2L145.1,11.1
		z"/>
	<path fill="#FFFFFF" d="M148.9,11.1V0.2h2.5c1.7,0,2.7,1.1,2.7,2.7c0,0.8-0.4,1.4-1,1.8c1.3,0.5,2.2,1.6,2.2,3.1
		c0,1.8-1.3,3.3-4.1,3.3H148.9z M151.5,4.5c1.1,0,1.6-0.7,1.6-1.6c0-0.9-0.5-1.7-1.6-1.7H150v3.3H151.5z M150,5.4v4.7h1.7
		c1.6,0,2.5-1.1,2.5-2.3c0-1.2-0.9-2.4-2.4-2.4H150z"/>
	<polygon fill="#FFFFFF" points="164.8,11.1 159,11.1 159,0.2 164.8,0.2 164.8,1.2 160.1,1.2 160.1,4.9 163.9,4.9 163.9,5.9 
		160.1,5.9 160.1,10 164.8,10 	"/>
	<path fill="#FFFFFF" d="M168.6,11.1V0.2h3.2c2.2,0,3.4,1.5,3.4,3.2c0,1.4-0.7,2.5-1.9,2.9l2.1,4.7h-1.2l-1.9-4.4
		c-0.1,0-0.3,0-0.4,0h-2.1v4.4H168.6z M171.8,5.6c1.6,0,2.3-0.9,2.3-2.2c0-1.3-0.7-2.2-2.3-2.2h-2.1v4.4H171.8z"/>
	<polygon fill="#FFFFFF" points="184.2,11.1 184.2,10.1 185.8,10.1 185.8,1.4 184.5,2 184.1,1.2 186,0.2 186.8,0.2 186.8,10.1 
		188.4,10.1 188.4,11.1 	"/>
	<path fill="#FFFFFF" d="M190.6,9.2l0.9-0.5c0,0,0.5,1.5,2.4,1.5c1.6,0,2.3-1.3,2.3-2.6c0-1.2-0.7-2.3-2.1-2.3h-0.7V4.4
		c1,0,1.7-0.9,1.7-2c0-1-0.7-1.5-1.3-1.5c-0.6,0-1.2,0.4-1.2,1.2h-1.1c0-1.5,1.1-2.3,2.3-2.3c1.2,0,2.4,0.8,2.4,2.5
		c0,0.9-0.4,1.8-1.2,2.2c1.4,0.4,2.2,1.6,2.2,3c0,1.8-1.1,3.5-3.4,3.5C191.2,11.2,190.6,9.2,190.6,9.2"/>
	<path fill="#FFFFFF" d="M199.9,12.3c0.9-0.5,0.9-1.1,0.9-1.1h-0.1c-0.5,0-0.9-0.4-0.9-0.9c0-0.5,0.4-0.9,0.9-0.9
		c1.6,0,1.2,2.9-0.3,3.5L199.9,12.3z"/>
	<path fill="#FFFFFF" d="M210.4,11.1v-0.8c0,0,5.3-3.6,5.3-7.1c0-1.4-1-2-2-2c-1,0-2,0.7-2,2c0,0.7,0.2,1,0.2,1l-1,0.3
		c0,0-0.3-0.4-0.3-1.3c0-2,1.5-3,3.1-3c1.5,0,3.1,1,3.1,3c0,2.8-3,5.7-4.5,6.8h4.6v1.1H210.4z"/>
	<path fill="#FFFFFF" d="M224.3,0c3,0,4.7,2.5,4.7,5.6c0,3-1.7,5.6-4.7,5.6c-3,0-4.7-2.6-4.7-5.6C219.6,2.6,221.2,0,224.3,0
		 M224.3,10.2c2.4,0,3.6-2.1,3.6-4.6c0-2.4-1.1-4.6-3.6-4.6c-2.4,0-3.6,2.1-3.6,4.6C220.7,8.1,221.8,10.2,224.3,10.2"/>
	<polygon fill="#FFFFFF" points="231.7,11.1 231.7,10.1 233.2,10.1 233.2,1.4 231.9,2 231.5,1.2 233.5,0.2 234.3,0.2 234.3,10.1 
		235.9,10.1 235.9,11.1 	"/>
	<path fill="#FFFFFF" d="M238.7,6.9c0-3,1.7-6,4.9-6.8l0.4,1c-3.3,1-4.1,4-4.1,4c0.6-0.9,1.5-1.3,2.8-1.3c2.3,0,3.4,1.8,3.4,3.7
		c0,1.9-1.2,3.8-3.6,3.8C239.9,11.2,238.7,9.2,238.7,6.9 M239.9,7.6c0,1.4,0.8,2.7,2.5,2.7c1.6,0,2.5-1.4,2.5-2.8
		c0-1.4-0.8-2.7-2.4-2.7C240.8,4.8,239.9,6.2,239.9,7.6"/>
	<polygon fill="#FFFFFF" points="78.3,4.7 75,2.8 71.8,4.7 70.8,5.3 71.8,5.8 75,7.7 78.3,5.8 79.3,5.3 	"/>
	<polygon fill="#FFFFFF" points="263.4,4.7 260.2,2.8 256.9,4.7 255.9,5.3 256.9,5.8 260.2,7.7 263.4,5.8 264.4,5.3 	"/>
</g>
<g>
	<path fill="#FFFFFF" d="M72.2,158.4c-1.2-0.4-2.5-0.7-3.7-1.1c-0.7,1-1.4,2.1-2.1,3.1c-0.4-0.1-0.8-0.2-1.2-0.4
		c2.3-3.2,4.6-6.4,6.8-9.6c0.4,0.1,0.7,0.2,1.1,0.3c0.1,3.9,0.3,7.9,0.5,11.8c-0.4-0.1-0.8-0.2-1.2-0.3
		C72.3,160.9,72.3,159.7,72.2,158.4 M69.1,156.5c1,0.3,2.1,0.6,3.1,0.9c0-1.5-0.1-2.9-0.1-4.4c0-0.5,0-1,0-1.1c0,0-0.3,0.6-0.6,0.9
		C70.7,154.1,69.9,155.3,69.1,156.5"/>
	<path fill="#FFFFFF" d="M77.1,163.5c1-3.6,1.9-7.2,2.9-10.8c1.1,0.3,2.1,0.6,3.2,0.8c2.3,0.6,3.1,2.3,2.6,4.1
		c-0.3,1.4-1.3,2.3-2.7,2.4c0.3,1.7,0.6,3.5,1,5.2c-0.4-0.1-0.8-0.2-1.2-0.3c-0.3-1.6-0.6-3.3-0.9-5c-0.1,0-0.3-0.1-0.5-0.1
		c-0.7-0.2-1.4-0.4-2.1-0.6c-0.4,1.5-0.8,2.9-1.2,4.4C77.9,163.7,77.5,163.6,77.1,163.5 M81.8,158.9c1.7,0.4,2.6-0.3,2.9-1.6
		c0.3-1.3-0.2-2.4-1.8-2.8c-0.7-0.2-1.4-0.4-2.1-0.6c-0.4,1.5-0.8,2.9-1.2,4.4C80.4,158.6,81.1,158.7,81.8,158.9"/>
	<path fill="#FFFFFF" d="M94.5,167.7c-2.1-0.4-4.1-0.9-6.1-1.4c0.8-3.6,1.7-7.3,2.5-10.9c2,0.5,4,0.9,5.9,1.3
		c-0.1,0.3-0.1,0.7-0.2,1c-1.6-0.3-3.2-0.7-4.8-1.1c-0.3,1.2-0.6,2.5-0.8,3.7c1.3,0.3,2.6,0.6,3.9,0.9c-0.1,0.3-0.1,0.7-0.2,1
		c-1.3-0.3-2.6-0.6-3.9-0.9c-0.3,1.4-0.6,2.8-1,4.1c1.7,0.4,3.3,0.8,5,1.1C94.7,167,94.6,167.4,94.5,167.7"/>
	<path fill="#FFFFFF" d="M110.6,170.9c-3.3-0.5-5.5-3.6-4.9-6.7c0.6-3.1,3.6-5.2,6.8-4.7c1.6,0.3,2.9,1.1,3.8,2.3
		c-0.3,0.2-0.6,0.4-0.9,0.7c-0.7-1-1.8-1.7-3.1-1.9c-2.6-0.4-5,1.3-5.5,3.8c-0.5,2.5,1.3,5,4,5.5c1.3,0.2,2.3,0,3.2-0.5
		c0.2-1,0.3-2,0.5-3c-1-0.2-2-0.3-3.1-0.5c0.1-0.3,0.1-0.7,0.2-1c1.4,0.2,2.8,0.5,4.2,0.7c-0.2,1.5-0.4,2.9-0.7,4.4
		C113.9,170.8,112.2,171.2,110.6,170.9"/>
	<path fill="#FFFFFF" d="M125.7,172.9c-2.1-0.3-4.1-0.5-6.2-0.8c0.5-3.7,1-7.4,1.5-11.1c2,0.3,4,0.5,6,0.8c0,0.4-0.1,0.7-0.1,1
		c-1.6-0.2-3.3-0.4-4.9-0.6c-0.2,1.2-0.3,2.5-0.5,3.7c1.3,0.2,2.6,0.4,4,0.5c0,0.4-0.1,0.7-0.1,1c-1.3-0.2-2.7-0.3-4-0.5
		c-0.2,1.4-0.4,2.8-0.6,4.2c1.7,0.2,3.4,0.4,5,0.6C125.8,172.2,125.8,172.6,125.7,172.9"/>
	<path fill="#FFFFFF" d="M131.5,173.6c0.4-3.4,0.7-6.7,1.1-10.1c-0.9-0.1-1.7-0.2-2.6-0.3c0-0.4,0.1-0.7,0.1-1
		c2.1,0.2,4.2,0.4,6.3,0.6c0,0.4-0.1,0.7-0.1,1.1c-0.9-0.1-1.7-0.2-2.6-0.3c-0.3,3.4-0.7,6.7-1,10.1
		C132.3,173.7,131.9,173.6,131.5,173.6"/>
	<path fill="#FFFFFF" d="M140.4,174.4c0.3-3.4,0.5-6.7,0.8-10.1c-0.9-0.1-1.7-0.1-2.6-0.2c0-0.4,0.1-0.7,0.1-1.1
		c2.1,0.2,4.2,0.3,6.3,0.5c0,0.4,0,0.7-0.1,1.1c-0.9-0.1-1.7-0.1-2.6-0.2c-0.3,3.4-0.5,6.7-0.8,10.1
		C141.2,174.5,140.8,174.4,140.4,174.4"/>
	<path fill="#FFFFFF" d="M147.1,174.9c0-0.3,0-0.6,0.1-1c0.5,0,0.9,0.1,1.4,0.1c0.2-3.1,0.3-6.2,0.5-9.3c-0.5,0-0.9-0.1-1.4-0.1
		c0-0.3,0-0.6,0.1-1c1.3,0.1,2.6,0.1,3.9,0.2c0,0.3,0,0.6,0,1c-0.5,0-0.9,0-1.4-0.1c-0.2,3.1-0.3,6.2-0.5,9.3c0.5,0,0.9,0,1.4,0.1
		c0,0.3,0,0.6,0,1C149.7,175,148.4,174.9,147.1,174.9"/>
	<path fill="#FFFFFF" d="M162.4,175.4c-0.4,0-0.8,0-1.2,0c0-1,0-2,0.1-3c-1.5-2-2.9-4-4.4-6.1c-0.2-0.2-0.3-0.4-0.3-0.4
		c0,0,0,0.3,0,0.5c-0.1,3-0.2,5.9-0.3,8.9c-0.4,0-0.8,0-1.2,0c0.1-3.7,0.3-7.5,0.4-11.2c0.4,0,0.8,0,1.2,0c1.4,2,2.8,4,4.2,6
		c0.1,0.2,0.3,0.5,0.3,0.5c0,0,0-0.3,0-0.6c0-1.9,0.1-3.9,0.1-5.8c0.4,0,0.8,0,1.1,0C162.5,168,162.5,171.7,162.4,175.4"/>
	<path fill="#FFFFFF" d="M172.5,175.6c-3.3,0-6-2.5-6-5.7c0-3.2,2.6-5.7,5.8-5.8c1.6,0,3.1,0.6,4.2,1.6c-0.3,0.3-0.5,0.5-0.8,0.8
		c-0.9-0.8-2.1-1.4-3.4-1.4c-2.6,0-4.7,2.2-4.7,4.7c0,2.6,2.1,4.7,4.8,4.7c1.3,0,2.3-0.4,3.1-1.1c0-1,0-2-0.1-3c-1,0-2.1,0-3.1,0.1
		c0-0.4,0-0.7,0-1.1c1.4,0,2.8,0,4.2-0.1c0,1.5,0.1,3,0.1,4.4C175.7,174.9,174.2,175.6,172.5,175.6"/>
	<path fill="#FFFFFF" d="M200.1,174c-0.4,0-0.8,0.1-1.2,0.1c-0.6-2.9-1.2-5.8-1.8-8.7c-0.1-0.3-0.1-0.6-0.1-0.7
		c0,0.1-0.1,0.4-0.2,0.7c-0.8,3-1.6,6-2.5,9.1c-0.2,0-0.5,0-0.7,0.1c-1.3-2.8-2.6-5.7-3.8-8.6c-0.1-0.3-0.3-0.6-0.3-0.7
		c0,0.1,0,0.4,0,0.7c-0.2,2.9-0.3,5.9-0.5,8.8c-0.4,0-0.8,0-1.2,0.1c0.3-3.8,0.6-7.5,0.9-11.3c0.4,0,0.8,0,1.2-0.1
		c1.2,2.8,2.5,5.5,3.8,8.3c0.1,0.2,0.1,0.4,0.2,0.5c0-0.1,0.1-0.4,0.1-0.6c0.9-2.9,1.7-5.8,2.5-8.7c0.4,0,0.8-0.1,1.2-0.1
		C198.4,166.6,199.3,170.3,200.1,174"/>
	<path fill="#FFFFFF" d="M209,169.4c-1.3,0.2-2.5,0.3-3.8,0.4c-0.2,1.2-0.5,2.4-0.7,3.7c-0.4,0-0.8,0.1-1.3,0.1
		c0.9-3.8,1.7-7.7,2.5-11.5c0.4,0,0.7-0.1,1.1-0.1c1.6,3.6,3.3,7.1,5.1,10.7c-0.4,0.1-0.8,0.1-1.2,0.2
		C210.1,171.7,209.6,170.6,209,169.4 M205.4,168.9c1.1-0.1,2.1-0.2,3.2-0.4c-0.6-1.3-1.2-2.7-1.8-4c-0.2-0.4-0.4-1-0.4-1
		c0,0-0.1,0.6-0.2,1.1C206,166,205.7,167.4,205.4,168.9"/>
	<path fill="#FFFFFF" d="M215.4,172.2c-0.5-3.7-1-7.4-1.5-11.1c1.1-0.2,2.2-0.3,3.3-0.5c2.3-0.3,3.7,0.9,4,2.8
		c0.2,1.4-0.3,2.6-1.5,3.3c1,1.5,1.9,3,2.9,4.5c-0.4,0.1-0.8,0.1-1.3,0.2c-0.9-1.4-1.8-2.8-2.8-4.2c-0.1,0-0.3,0.1-0.5,0.1
		c-0.7,0.1-1.5,0.2-2.2,0.3c0.2,1.5,0.4,3,0.6,4.5C216.2,172.1,215.8,172.1,215.4,172.2 M218,166.2c1.7-0.3,2.3-1.3,2.1-2.6
		c-0.2-1.3-1.1-2.1-2.7-1.9c-0.7,0.1-1.4,0.2-2.1,0.3c0.2,1.5,0.4,3,0.6,4.5C216.5,166.4,217.3,166.3,218,166.2"/>
	<path fill="#FFFFFF" d="M226.9,170.4c-0.6-3.7-1.3-7.4-1.9-11c1.1-0.2,2.2-0.4,3.2-0.6c2.3-0.4,3.8,0.8,4.1,2.6
		c0.3,1.4-0.2,2.6-1.4,3.3c1,1.5,2,2.9,3.1,4.4c-0.4,0.1-0.8,0.2-1.3,0.2c-1-1.4-1.9-2.7-2.9-4.1c-0.1,0-0.3,0.1-0.5,0.1
		c-0.7,0.1-1.4,0.3-2.2,0.4c0.3,1.5,0.5,3,0.8,4.5C227.7,170.3,227.3,170.3,226.9,170.4 M229.3,164.3c1.7-0.3,2.2-1.4,2-2.7
		c-0.3-1.3-1.2-2.1-2.8-1.8c-0.7,0.1-1.4,0.3-2.1,0.4c0.3,1.5,0.5,3,0.8,4.5C227.8,164.5,228.5,164.4,229.3,164.3"/>
	<path fill="#FFFFFF" d="M237.5,168.4c-0.1-0.3-0.1-0.6-0.2-0.9c0.5-0.1,0.9-0.2,1.4-0.3c-0.6-3-1.3-6.1-1.9-9.1
		c-0.5,0.1-0.9,0.2-1.4,0.3c-0.1-0.3-0.1-0.6-0.2-0.9c1.3-0.3,2.5-0.5,3.8-0.8c0.1,0.3,0.1,0.6,0.2,0.9c-0.4,0.1-0.9,0.2-1.3,0.3
		c0.6,3,1.3,6.1,1.9,9.1c0.5-0.1,0.9-0.2,1.4-0.3c0.1,0.3,0.1,0.6,0.2,0.9C240.1,167.9,238.8,168.1,237.5,168.4"/>
	<path fill="#FFFFFF" d="M251.7,165.2c-2,0.5-4.1,1-6.1,1.5c-0.8-3.6-1.7-7.3-2.5-10.9c2-0.5,4-0.9,5.9-1.4c0.1,0.3,0.2,0.7,0.3,1
		c-1.6,0.4-3.2,0.8-4.8,1.2c0.3,1.2,0.6,2.5,0.9,3.7c1.3-0.3,2.6-0.6,3.9-0.9c0.1,0.3,0.2,0.7,0.3,1c-1.3,0.3-2.6,0.6-3.9,0.9
		c0.3,1.4,0.6,2.8,1,4.1c1.7-0.4,3.3-0.8,5-1.2C251.5,164.5,251.6,164.9,251.7,165.2"/>
	<path fill="#FFFFFF" d="M253.2,153.2c0.9-0.2,1.8-0.5,2.7-0.7c3.5-0.9,6.1-0.1,7.2,3.6c1,3.5-0.6,6.2-3.8,7
		c-1.1,0.3-2.2,0.6-3.3,0.9C255.1,160.5,254.2,156.9,253.2,153.2 M259.1,162.3c2.5-0.7,3.7-2.9,2.9-5.8c-0.9-3.2-3-3.8-5.8-3
		c-0.5,0.1-1.1,0.3-1.6,0.4c0.8,3,1.6,6,2.4,9C257.7,162.7,258.4,162.5,259.1,162.3"/>
	<path fill="#FFFFFF" d="M268.8,158.8c0.5-0.2,1,0.1,1.2,0.6c0.1,0.5-0.2,1-0.7,1.2c-0.5,0.2-1-0.1-1.2-0.6
		C268,159.4,268.3,158.9,268.8,158.8 M267.8,157.4c-0.8-2.5-1.6-5.1-2.4-7.6c0.4-0.1,0.8-0.2,1.2-0.4c0.8,2.6,1.5,5.1,2.3,7.7
		C268.5,157.2,268.2,157.3,267.8,157.4"/>
</g>
</svg>
