<?xml version="1.0" encoding="utf-8"?>
<!-- Generator: Adobe Illustrator 18.1.1, SVG Export Plug-In . SVG Version: 6.00 Build 0)  -->
<svg version="1.1" id="Layer_1" xmlns="http://www.w3.org/2000/svg" xmlns:xlink="http://www.w3.org/1999/xlink" x="0px" y="0px"
	 viewBox="0 0 800 800" enable-background="new 0 0 800 800" xml:space="preserve">
<g>
	<path fill="#FFFFFF" d="M800.1,165.3c0-8.6-7-15.7-15.7-15.7H641.7c-8.6,0-15.7,7-15.7,15.7v61.5c0,1.2,0.1,2.3,0.4,3.5v66.9
		c-3.4-0.9-6.9-1.5-10.4-1.5c-23,0-41.7,18.7-41.7,41.7s18.7,41.7,41.7,41.7c23,0,41.7-18.7,41.7-41.7c0-2.3-0.3-4.5-0.7-6.7
		c0.4-1.3,0.7-2.8,0.7-4.4v-83.9h110.7v54.8c-3.4-0.9-6.9-1.5-10.4-1.5c-23,0-41.7,18.7-41.7,41.7s18.7,41.7,41.7,41.7
		s41.7-18.7,41.7-41.7c0-2.3-0.3-4.5-0.7-6.7c0.4-1.3,0.7-2.8,0.7-4.4v-98.1c0-0.4,0.1-0.9,0.1-1.5L800.1,165.3L800.1,165.3z
		 M657.4,180.8h111.3v30.3H657.4V180.8z M616.1,347.9c-5.7,0-10.4-4.7-10.4-10.4s4.7-10.4,10.4-10.4c5.7,0,10.4,4.7,10.4,10.4
		C626.7,343.1,622,347.9,616.1,347.9z M758.2,347.9c-5.7,0-10.4-4.7-10.4-10.4s4.7-10.4,10.4-10.4c5.7,0,10.4,4.7,10.4,10.4
		C768.7,343.1,764,347.9,758.2,347.9z"/>
	<path fill="#FFFFFF" d="M83.6,313.7c0-5.1-1-10-2.8-14.4v-56.1L192.1,222v51.7c-3.5-1-7.3-1.8-11.1-1.8c-23,0-41.7,18.7-41.7,41.7
		c0,23,18.7,41.7,41.7,41.7s41.7-18.7,41.7-41.7c0-1.8-0.3-3.4-0.4-5c0.7-1.9,1.2-4,1.2-6v-99.6v-61.5c0-4.7-2.1-9.1-5.7-12
		c-3.7-2.9-8.3-4.2-12.9-3.4L62.2,153.4c-7.3,1.5-12.7,7.9-12.7,15.4v61.5v42.5c-2.5-0.4-5.1-0.7-7.8-0.7c-23,0-41.7,18.7-41.7,41.7
		s18.7,41.7,41.7,41.7S83.6,336.7,83.6,313.7z M181.1,324.2c-5.7,0-10.4-4.7-10.4-10.4s4.7-10.4,10.4-10.4c5.7,0,10.4,4.7,10.4,10.4
		C191.5,319.5,186.8,324.2,181.1,324.2z M80.8,181.7l111.3-21.2v29.7L80.8,211.4V181.7z M41.8,324.2c-5.7,0-10.4-4.7-10.4-10.4
		s4.7-10.4,10.4-10.4c3.8,0,7.2,2.2,8.9,5.3c0.3,0.6,0.6,1,0.9,1.6c0.4,1.2,0.7,2.3,0.7,3.5C52.4,319.5,47.7,324.2,41.8,324.2z"/>
	<path fill="#FFFFFF" d="M635,548.4c-0.1-99.9-63.4-185.3-152-218.2v-56.1c0-8.6-7-15.7-15.7-15.7h-48.6V33.8
		c0-8.6-7-15.7-15.7-15.7c-8.6,0-15.7,7-15.7,15.7v224.5h-50.5c-8.6,0-15.7,7-15.7,15.7v56c-88.9,32.8-152.6,118.3-152.6,218.5
		c-0.3,1.2-0.6,2.5-0.6,3.8c0,1.6,0.3,3.1,0.7,4.4c4.2,124.9,107.1,225.3,233,225.3s228.8-100.3,233-225.3c0.4-1.5,0.7-2.9,0.7-4.4
		C635.4,550.9,635.3,549.6,635,548.4z M576,650.4h-51.4c7.3-25.2,12-52.9,13.2-82.6h65C600,597.8,590.5,625.8,576,650.4z
		 M200.9,567.9h65c1.3,29.6,5.9,57.4,13.2,82.6h-51.4C213.2,625.8,203.7,597.8,200.9,567.9z M223.6,454.1h54.9
		c-7.2,25.2-11.6,53-12.7,82.6h-65.3C202.2,507,210.3,479,223.6,454.1z M417.4,422.8v-62.5c24.3,7,46.1,29.9,62.1,62.5H417.4z
		 M492.2,454.1c8.1,24.8,13.2,52.9,14.5,82.6h-89.2v-82.6H492.2z M386.2,360.2v62.5h-62.1C340,390.1,361.8,367.3,386.2,360.2z
		 M386.2,454.1v82.6H297c1.3-29.7,6.4-57.9,14.5-82.6H386.2z M297.1,567.9h89.1v82.6h-74C303.8,625.8,298.6,597.7,297.1,567.9z
		 M386.2,681.7v60.5c-23.7-6.9-45.3-28.9-61.1-60.5H386.2z M417.4,742.2v-60.5h61.1C462.6,713.4,441.2,735.3,417.4,742.2z
		 M417.4,650.4v-82.6h89.1c-1.5,29.9-6.9,57.9-15.1,82.6H417.4z M537.8,536.6c-1.2-29.6-5.6-57.4-12.7-82.6h53.5
		c0.4,0,0.9-0.1,1.5-0.1c13.3,24.9,21.4,53,23.1,82.8H537.8z M559.4,422.8h-45.1c-10.4-25-23.9-46.1-39.5-62.1
		C508.2,373.7,537.3,395.2,559.4,422.8z M352.6,289.6h99.2V321c-16.1-3.5-32.8-5.4-49.8-5.4c-16.8,0-33.4,1.9-49.2,5.3v-31.2H352.6z
		 M328.7,360.7c-15.7,16.1-29.1,37.2-39.5,62.1h-45.1C266.2,395.2,295.3,373.7,328.7,360.7z M250.1,681.7h40
		c8.6,20.4,19.3,37.9,31.6,52.4C294,722.2,269.7,704,250.1,681.7z M481.9,734c12.3-14.4,22.8-32.1,31.6-52.4h40
		C533.8,704,509.5,722,481.9,734z"/>
	<path fill="#FFFFFF" d="M147.9,433.8L87.8,408c-7.9-3.4-17.1,0.3-20.5,8.2c-3.4,7.9,0.3,17.1,8.2,20.5l60.1,25.8
		c2.1,0.9,4.1,1.3,6.2,1.3c6,0,11.9-3.5,14.4-9.5C159.4,446.4,155.8,437.1,147.9,433.8z"/>
	<path fill="#FFFFFF" d="M127.5,655.7l-60.1,25.8c-7.9,3.4-11.6,12.6-8.2,20.5c2.5,5.9,8.3,9.5,14.4,9.5c2.1,0,4.1-0.4,6.2-1.3
		l60.1-25.8c7.9-3.4,11.6-12.6,8.2-20.5C144.6,656,135.6,652.3,127.5,655.7z"/>
	<path fill="#FFFFFF" d="M68.5,574.8l65.3-0.1c8.6,0,15.7-7,15.5-15.7s-7-15.5-15.7-15.5l0,0l-65.3,0.1c-8.6,0-15.7,7-15.5,15.7
		C52.8,567.8,59.8,574.8,68.5,574.8C68.3,574.8,68.5,574.8,68.5,574.8z"/>
	<path fill="#FFFFFF" d="M668.3,463.8c2.1,0,4.1-0.4,6.2-1.3l60.1-25.8c7.9-3.4,11.6-12.6,8.2-20.5c-3.4-7.9-12.6-11.6-20.5-8.2
		l-60.1,25.8c-7.9,3.4-11.6,12.6-8.2,20.5C656.4,460.3,662.2,463.8,668.3,463.8z"/>
	<path fill="#FFFFFF" d="M721.7,681.4l-60.1-25.8c-7.9-3.4-17.1,0.3-20.5,8.2s0.3,17.1,8.2,20.5l60.1,25.8c2.1,0.9,4.1,1.3,6.2,1.3
		c6,0,11.9-3.5,14.4-9.5C733.3,694,729.6,684.8,721.7,681.4z"/>
	<path fill="#FFFFFF" d="M741.6,543.6l-65.3-0.1l0,0c-8.6,0-15.7,7-15.7,15.5c0,8.6,7,15.7,15.5,15.7l65.3,0.1l0,0
		c8.6,0,15.7-7,15.7-15.5C757.3,550.6,750.3,543.6,741.6,543.6z"/>
</g>
</svg>
